# xmcd CD database file
#
# Track frame offsets:
#	150
#	22222
#	47983
#	76573
#	95912
#	114951
#	138148
#	167806
#	191835
#
# Disc length: 2878 seconds
#
# Revision: 1
# Processed by: cddbd v1.5.2PL0 Copyright (c) Steve Scherf et al.
# Submitted via: CDex 1.51
#
DISCID=740b3c09
DTITLE=Jan Kaspersen - Katuaq Concert
DYEAR=1998
DGENRE=Blues
TTITLE0=Red Monk
TTITLE1=Bizarre Ballet
TTITLE2=`Round Midnight
TTITLE3=Ugly Beauty
TTITLE4=Light Blue
TTITLE5=I`ll buy you gold and silver
TTITLE6=Blues for dollar brand
TTITLE7=Memories of you
TTITLE8=I mean monk
EXTD=YEAR: 1998
EXTT0=
EXTT1=
EXTT2=
EXTT3=
EXTT4=
EXTT5=
EXTT6=
EXTT7=
EXTT8=
PLAYORDER=
